<svg xmlns="http://www.w3.org/2000/svg" viewBox="0 0 64 64" role="img" aria-label="Calculator">
  <defs>
    <linearGradient id="g" x1="0%" y1="0%" x2="100%" y2="100%">
      <stop offset="0%" stop-color="#0ea5e9"/>
      <stop offset="100%" stop-color="#22c55e"/>
    </linearGradient>
  </defs>
  <!-- rounded body -->
  <rect x="8" y="4" width="48" height="56" rx="10" fill="url(#g)"/>
  <rect x="12" y="8" width="40" height="48" rx="8" fill="#0f172a"/>
  <!-- display -->
  <rect x="16" y="12" width="32" height="12" rx="3" fill="#020617"/>
  <text x="44" y="21" text-anchor="end" font-family="ui-monospace,monospace" font-size="9" font-weight="700" fill="#4ade80">9.1</text>
  <!-- keys 3x4 -->
  <g fill="#1e293b">
    <rect x="16" y="28" width="8" height="6" rx="1.5"/>
    <rect x="28" y="28" width="8" height="6" rx="1.5"/>
    <rect x="40" y="28" width="8" height="6" rx="1.5"/>
    <rect x="16" y="36" width="8" height="6" rx="1.5"/>
    <rect x="28" y="36" width="8" height="6" rx="1.5"/>
    <rect x="40" y="36" width="8" height="6" rx="1.5"/>
    <rect x="16" y="44" width="8" height="6" rx="1.5"/>
    <rect x="28" y="44" width="8" height="6" rx="1.5"/>
    <rect x="40" y="44" width="8" height="6" rx="1.5"/>
  </g>
  <!-- accent key -->
  <rect x="40" y="44" width="8" height="6" rx="1.5" fill="#38bdf8"/>
</svg>
